<svg width="300" height="300" viewBox="0 0 300 300" fill="none" xmlns="http://www.w3.org/2000/svg">
<rect width="300" height="300" fill="white"/>
<path d="M62.0932 158.414H50.4172L48.4852 164H42.3112L52.8532 134.642H59.6992L70.2412 164H64.0252L62.0932 158.414ZM60.4972 153.71L56.2552 141.446L52.0132 153.71H60.4972ZM83.4216 144.092C84.1776 143.028 85.2136 142.146 86.5296 141.446C87.8736 140.718 89.3996 140.354 91.1076 140.354C93.0956 140.354 94.8876 140.844 96.4836 141.824C98.1076 142.804 99.3816 144.204 100.306 146.024C101.258 147.816 101.734 149.902 101.734 152.282C101.734 154.662 101.258 156.776 100.306 158.624C99.3816 160.444 98.1076 161.858 96.4836 162.866C94.8876 163.874 93.0956 164.378 91.1076 164.378C89.3996 164.378 87.8876 164.028 86.5716 163.328C85.2836 162.628 84.2336 161.746 83.4216 160.682V175.088H77.5416V140.732H83.4216V144.092ZM95.7276 152.282C95.7276 150.882 95.4336 149.678 94.8456 148.67C94.2856 147.634 93.5296 146.85 92.5776 146.318C91.6536 145.786 90.6456 145.52 89.5536 145.52C88.4896 145.52 87.4816 145.8 86.5296 146.36C85.6056 146.892 84.8496 147.676 84.2616 148.712C83.7016 149.748 83.4216 150.966 83.4216 152.366C83.4216 153.766 83.7016 154.984 84.2616 156.02C84.8496 157.056 85.6056 157.854 86.5296 158.414C87.4816 158.946 88.4896 159.212 89.5536 159.212C90.6456 159.212 91.6536 158.932 92.5776 158.372C93.5296 157.812 94.2856 157.014 94.8456 155.978C95.4336 154.942 95.7276 153.71 95.7276 152.282ZM115.246 144.092C116.002 143.028 117.038 142.146 118.354 141.446C119.698 140.718 121.224 140.354 122.932 140.354C124.92 140.354 126.712 140.844 128.308 141.824C129.932 142.804 131.206 144.204 132.13 146.024C133.082 147.816 133.558 149.902 133.558 152.282C133.558 154.662 133.082 156.776 132.13 158.624C131.206 160.444 129.932 161.858 128.308 162.866C126.712 163.874 124.92 164.378 122.932 164.378C121.224 164.378 119.712 164.028 118.396 163.328C117.108 162.628 116.058 161.746 115.246 160.682V175.088H109.366V140.732H115.246V144.092ZM127.552 152.282C127.552 150.882 127.258 149.678 126.67 148.67C126.11 147.634 125.354 146.85 124.402 146.318C123.478 145.786 122.47 145.52 121.378 145.52C120.314 145.52 119.306 145.8 118.354 146.36C117.43 146.892 116.674 147.676 116.086 148.712C115.526 149.748 115.246 150.966 115.246 152.366C115.246 153.766 115.526 154.984 116.086 156.02C116.674 157.056 117.43 157.854 118.354 158.414C119.306 158.946 120.314 159.212 121.378 159.212C122.47 159.212 123.478 158.932 124.402 158.372C125.354 157.812 126.11 157.014 126.67 155.978C127.258 154.942 127.552 153.71 127.552 152.282ZM147.071 132.92V164H141.191V132.92H147.071ZM159.223 137.96C158.187 137.96 157.319 137.638 156.619 136.994C155.947 136.322 155.611 135.496 155.611 134.516C155.611 133.536 155.947 132.724 156.619 132.08C157.319 131.408 158.187 131.072 159.223 131.072C160.259 131.072 161.113 131.408 161.785 132.08C162.485 132.724 162.835 133.536 162.835 134.516C162.835 135.496 162.485 136.322 161.785 136.994C161.113 137.638 160.259 137.96 159.223 137.96ZM162.121 140.732V164H156.241V140.732H162.121ZM177.17 144.092C177.926 143.028 178.962 142.146 180.278 141.446C181.622 140.718 183.148 140.354 184.856 140.354C186.844 140.354 188.636 140.844 190.232 141.824C191.856 142.804 193.13 144.204 194.054 146.024C195.006 147.816 195.482 149.902 195.482 152.282C195.482 154.662 195.006 156.776 194.054 158.624C193.13 160.444 191.856 161.858 190.232 162.866C188.636 163.874 186.844 164.378 184.856 164.378C183.148 164.378 181.636 164.028 180.32 163.328C179.032 162.628 177.982 161.746 177.17 160.682V175.088H171.29V140.732H177.17V144.092ZM189.476 152.282C189.476 150.882 189.182 149.678 188.594 148.67C188.034 147.634 187.278 146.85 186.326 146.318C185.402 145.786 184.394 145.52 183.302 145.52C182.238 145.52 181.23 145.8 180.278 146.36C179.354 146.892 178.598 147.676 178.01 148.712C177.45 149.748 177.17 150.966 177.17 152.366C177.17 153.766 177.45 154.984 178.01 156.02C178.598 157.056 179.354 157.854 180.278 158.414C181.23 158.946 182.238 159.212 183.302 159.212C184.394 159.212 185.402 158.932 186.326 158.372C187.278 157.812 188.034 157.014 188.594 155.978C189.182 154.942 189.476 153.71 189.476 152.282ZM208.995 144.092C209.751 143.028 210.787 142.146 212.103 141.446C213.447 140.718 214.973 140.354 216.681 140.354C218.669 140.354 220.461 140.844 222.057 141.824C223.681 142.804 224.955 144.204 225.879 146.024C226.831 147.816 227.307 149.902 227.307 152.282C227.307 154.662 226.831 156.776 225.879 158.624C224.955 160.444 223.681 161.858 222.057 162.866C220.461 163.874 218.669 164.378 216.681 164.378C214.973 164.378 213.461 164.028 212.145 163.328C210.857 162.628 209.807 161.746 208.995 160.682V175.088H203.115V140.732H208.995V144.092ZM221.301 152.282C221.301 150.882 221.007 149.678 220.419 148.67C219.859 147.634 219.103 146.85 218.151 146.318C217.227 145.786 216.219 145.52 215.127 145.52C214.063 145.52 213.055 145.8 212.103 146.36C211.179 146.892 210.423 147.676 209.835 148.712C209.275 149.748 208.995 150.966 208.995 152.366C208.995 153.766 209.275 154.984 209.835 156.02C210.423 157.056 211.179 157.854 212.103 158.414C213.055 158.946 214.063 159.212 215.127 159.212C216.219 159.212 217.227 158.932 218.151 158.372C219.103 157.812 219.859 157.014 220.419 155.978C221.007 154.942 221.301 153.71 221.301 152.282ZM240.82 132.92V164H234.94V132.92H240.82ZM252.971 137.96C251.935 137.96 251.067 137.638 250.367 136.994C249.695 136.322 249.359 135.496 249.359 134.516C249.359 133.536 249.695 132.724 250.367 132.08C251.067 131.408 251.935 131.072 252.971 131.072C254.007 131.072 254.861 131.408 255.533 132.08C256.233 132.724 256.583 133.536 256.583 134.516C256.583 135.496 256.233 136.322 255.533 136.994C254.861 137.638 254.007 137.96 252.971 137.96ZM255.869 140.732V164H249.989V140.732H255.869Z" fill="#142382"/>
<path d="M53.5913 96.04L48.8713 105.14V110H46.0713V105.14L41.3313 96.04H44.4913L47.4913 102.42L50.4713 96.04H53.5913ZM61.1262 110.18C60.0595 110.18 59.0995 109.947 58.2462 109.48C57.3928 109 56.7195 108.327 56.2262 107.46C55.7462 106.593 55.5062 105.593 55.5062 104.46C55.5062 103.327 55.7528 102.327 56.2462 101.46C56.7528 100.593 57.4395 99.9267 58.3062 99.46C59.1728 98.98 60.1395 98.74 61.2062 98.74C62.2728 98.74 63.2395 98.98 64.1062 99.46C64.9728 99.9267 65.6528 100.593 66.1462 101.46C66.6528 102.327 66.9062 103.327 66.9062 104.46C66.9062 105.593 66.6462 106.593 66.1262 107.46C65.6195 108.327 64.9262 109 64.0462 109.48C63.1795 109.947 62.2062 110.18 61.1262 110.18ZM61.1262 107.74C61.6328 107.74 62.1062 107.62 62.5462 107.38C62.9995 107.127 63.3595 106.753 63.6262 106.26C63.8928 105.767 64.0262 105.167 64.0262 104.46C64.0262 103.407 63.7462 102.6 63.1862 102.04C62.6395 101.467 61.9662 101.18 61.1662 101.18C60.3662 101.18 59.6928 101.467 59.1462 102.04C58.6128 102.6 58.3462 103.407 58.3462 104.46C58.3462 105.513 58.6062 106.327 59.1262 106.9C59.6595 107.46 60.3262 107.74 61.1262 107.74ZM80.4201 98.92V110H77.6001V108.6C77.2401 109.08 76.7667 109.46 76.1801 109.74C75.6067 110.007 74.9801 110.14 74.3001 110.14C73.4334 110.14 72.6667 109.96 72.0001 109.6C71.3334 109.227 70.8067 108.687 70.4201 107.98C70.0467 107.26 69.8601 106.407 69.8601 105.42V98.92H72.6601V105.02C72.6601 105.9 72.8801 106.58 73.3201 107.06C73.7601 107.527 74.3601 107.76 75.1201 107.76C75.8934 107.76 76.5001 107.527 76.9401 107.06C77.3801 106.58 77.6001 105.9 77.6001 105.02V98.92H80.4201ZM86.9827 100.64C87.3427 100.053 87.8094 99.5933 88.3827 99.26C88.9694 98.9267 89.6361 98.76 90.3827 98.76V101.7H89.6427C88.7627 101.7 88.0961 101.907 87.6427 102.32C87.2027 102.733 86.9827 103.453 86.9827 104.48V110H84.1827V98.92H86.9827V100.64Z" fill="#C8BFE7"/>
<circle cx="253" cy="131" r="7.5" fill="white" stroke="#142382"/>
<circle cx="256" cy="128" r="8" fill="#142382"/>
<circle cx="160" cy="131" r="7.5" fill="white" stroke="#142382"/>
<circle cx="163" cy="128" r="8" fill="#142382"/>
</svg>
